{
  "accessors": [
    {
      "bufferView": 2,
      "componentType": 5126,
      "count": 2845,
      "max": [
        1.0,
        0.8910999894142151,
        0.7021780014038086
      ],
      "min": [
        -1.0,
        -0.8910999894142151,
        -0.7021780014038086
      ],
      "type": "VEC3"
    },
    {
      "bufferView": 2,
      "byteOffset": 34140,
      "componentType": 5126,
      "count": 2845,
      "max": [
        1.0,
        1.0,
        1.0
      ],
      "min": [
        -1.0,
        -1.0,
        -1.0
      ],
      "type": "VEC3"
    },
    {
      "bufferView": 3,
      "componentType": 5126,
      "count": 2845,
      "max": [
        1.0,
        1.0,
        1.0,
        1.0
      ],
      "min": [
        -1.0,
        -1.0,
        -1.0,
        -1.0
      ],
      "type": "VEC4"
    },
    {
      "bufferView": 1,
      "componentType": 5126,
      "count": 2845,
      "max": [
        0.9958750009536743,
        0.9974769949913025
      ],
      "min": [
        0.00238563003949821,
        0.0031887399964034557
      ],
      "type": "VEC2"
    },
    {
      "bufferView": 0,
      "componentType": 5125,
      "count": 5904,
      "type": "SCALAR"
    },
    {
      "bufferView": 2,
      "byteOffset": 68280,
      "componentType": 5126,
      "count": 1283,
      "max": [
        0.9738100171089172,
        0.8381569981575012,
        0.6604560017585754
      ],
      "min": [
        -0.973809003829956,
        0.08217939734458923,
        -0.6824010014533997
      ],
      "type": "VEC3"
    },
    {
      "bufferView": 2,
      "byteOffset": 83676,
      "componentType": 5126,
      "count": 1283,
      "max": [
        1.0,
        1.3608500921691302e-06,
        1.0
      ],
      "min": [
        -1.0,
        -0.9999954700469971,
        -1.0
      ],
      "type": "VEC3"
    },
    {
      "bufferView": 3,
      "byteOffset": 45520,
      "componentType": 5126,
      "count": 1283,
      "max": [
        1.0,
        0.9999552369117737,
        0.9999532103538513,
        1.0
      ],
      "min": [
        -1.0,
        -1.0,
        -0.9999955892562866,
        1.0
      ],
      "type": "VEC4"
    },
    {
      "bufferView": 1,
      "byteOffset": 22760,
      "componentType": 5126,
      "count": 1283,
      "max": [
        0.9784110188484192,
        0.989359974861145
      ],
      "min": [
        0.014264499768614769,
        0.02052520029246807
      ],
      "type": "VEC2"
    },
    {
      "bufferView": 0,
      "byteOffset": 23616,
      "componentType": 5125,
      "count": 6024,
      "type": "SCALAR"
    }
  ],
  "asset": {
    "extras": {
      "author": "matthewnixon (https://sketchfab.com/matthewnixon)",
      "license": "CC-BY-4.0 (http://creativecommons.org/licenses/by/4.0/)",
      "source": "https://sketchfab.com/3d-models/japanese-noodle-stand-ee65b0c6b4184bd1942bab77ed681d2a",
      "title": "Japanese Noodle Stand"
    },
    "generator": "Sketchfab-12.68.0",
    "version": "2.0"
  },
  "bufferViews": [
    {
      "buffer": 0,
      "byteLength": 47712,
      "name": "floatBufferViews",
      "target": 34963
    },
    {
      "buffer": 0,
      "byteLength": 33024,
      "byteOffset": 47712,
      "byteStride": 8,
      "name": "floatBufferViews",
      "target": 34962
    },
    {
      "buffer": 0,
      "byteLength": 99072,
      "byteOffset": 80736,
      "byteStride": 12,
      "name": "floatBufferViews",
      "target": 34962
    },
    {
      "buffer": 0,
      "byteLength": 66048,
      "byteOffset": 179808,
      "byteStride": 16,
      "name": "floatBufferViews",
      "target": 34962
    }
  ],
  "buffers": [
    {
      "byteLength": 245856,
      "uri": "scene.bin"
    }
  ],
  "images": [
    {
      "uri": "textures/Banner1_baseColor.jpeg"
    },
    {
      "uri": "textures/Banner1_metallicRoughness.png"
    },
    {
      "uri": "textures/Banner1_normal.png"
    },
    {
      "uri": "textures/lambert1_baseColor.jpeg"
    },
    {
      "uri": "textures/lambert1_metallicRoughness.png"
    },
    {
      "uri": "textures/lambert1_emissive.jpeg"
    },
    {
      "uri": "textures/lambert1_normal.png"
    }
  ],
  "materials": [
    {
      "doubleSided": true,
      "name": "Banner1",
      "normalTexture": {
        "index": 2
      },
      "pbrMetallicRoughness": {
        "baseColorTexture": {
          "index": 0
        },
        "metallicRoughnessTexture": {
          "index": 1
        }
      }
    },
    {
      "doubleSided": true,
      "emissiveFactor": [
        1.0,
        1.0,
        1.0
      ],
      "emissiveTexture": {
        "index": 5
      },
      "name": "lambert1",
      "normalTexture": {
        "index": 6
      },
      "pbrMetallicRoughness": {
        "baseColorTexture": {
          "index": 3
        },
        "metallicRoughnessTexture": {
          "index": 4
        }
      }
    }
  ],
  "meshes": [
    {
      "name": "defaultMaterial",
      "primitives": [
        {
          "attributes": {
            "NORMAL": 1,
            "POSITION": 0,
            "TANGENT": 2,
            "TEXCOORD_0": 3
          },
          "indices": 4,
          "material": 1,
          "mode": 4
        }
      ]
    },
    {
      "name": "defaultMaterial",
      "primitives": [
        {
          "attributes": {
            "NORMAL": 6,
            "POSITION": 5,
            "TANGENT": 7,
            "TEXCOORD_0": 8
          },
          "indices": 9,
          "material": 0,
          "mode": 4
        }
      ]
    }
  ],
  "nodes": [
    {
      "children": [
        1
      ],
      "matrix": [
        1.0,
        0.0,
        0.0,
        0.0,
        0.0,
        2.220446049250313e-16,
        -1.0,
        0.0,
        0.0,
        1.0,
        2.220446049250313e-16,
        0.0,
        0.0,
        0.0,
        0.0,
        1.0
      ],
      "name": "Sketchfab_model"
    },
    {
      "children": [
        2,
        4
      ],
      "matrix": [
        1.0,
        0.0,
        0.0,
        0.0,
        0.0,
        -4.371139006309477e-08,
        0.999999999999999,
        0.0,
        0.0,
        -0.999999999999999,
        -4.371139006309477e-08,
        0.0,
        0.0,
        0.0,
        0.0,
        1.0
      ],
      "name": "Collada visual scene group"
    },
    {
      "children": [
        3
      ],
      "name": "Stand"
    },
    {
      "mesh": 0,
      "name": "defaultMaterial"
    },
    {
      "children": [
        5
      ],
      "name": "Banner"
    },
    {
      "mesh": 1,
      "name": "defaultMaterial"
    }
  ],
  "samplers": [
    {
      "magFilter": 9729,
      "minFilter": 9987,
      "wrapS": 10497,
      "wrapT": 10497
    }
  ],
  "scene": 0,
  "scenes": [
    {
      "name": "Sketchfab_Scene",
      "nodes": [
        0
      ]
    }
  ],
  "textures": [
    {
      "sampler": 0,
      "source": 0
    },
    {
      "sampler": 0,
      "source": 1
    },
    {
      "sampler": 0,
      "source": 2
    },
    {
      "sampler": 0,
      "source": 3
    },
    {
      "sampler": 0,
      "source": 4
    },
    {
      "sampler": 0,
      "source": 5
    },
    {
      "sampler": 0,
      "source": 6
    }
  ]
}
