{
  "accessors": [
    {
      "bufferView": 2,
      "componentType": 5126,
      "count": 5692,
      "max": [
        1.3555940389633179,
        2.988307476043701,
        1.3676272630691528
      ],
      "min": [
        -1.354678750038147,
        -0.16626057028770447,
        -1.381233811378479
      ],
      "type": "VEC3"
    },
    {
      "bufferView": 2,
      "byteOffset": 68304,
      "componentType": 5126,
      "count": 5692,
      "max": [
        0.999893069267273,
        0.9997526407241821,
        0.9999219179153442
      ],
      "min": [
        -0.9998841285705566,
        -0.4527781307697296,
        -0.9983956217765808
      ],
      "type": "VEC3"
    },
    {
      "bufferView": 1,
      "componentType": 5126,
      "count": 5692,
      "max": [
        0.9583334922790527,
        0.9583334922790527
      ],
      "min": [
        0.0416666641831398,
        0.0416666641831398
      ],
      "type": "VEC2"
    },
    {
      "bufferView": 0,
      "componentType": 5125,
      "count": 19968,
      "type": "SCALAR"
    },
    {
      "bufferView": 2,
      "byteOffset": 136608,
      "componentType": 5126,
      "count": 2685,
      "max": [
        0.6668595671653748,
        0.05824974551796913,
        0.650387167930603
      ],
      "min": [
        -0.6668593883514404,
        -0.016620423644781113,
        -0.6448031663894653
      ],
      "type": "VEC3"
    },
    {
      "bufferView": 2,
      "byteOffset": 168828,
      "componentType": 5126,
      "count": 2685,
      "max": [
        1.0,
        1.0,
        1.0
      ],
      "min": [
        -1.0,
        -1.0,
        -1.0
      ],
      "type": "VEC3"
    },
    {
      "bufferView": 1,
      "byteOffset": 45536,
      "componentType": 5126,
      "count": 2685,
      "max": [
        1.0,
        1.0
      ],
      "min": [
        0.0,
        2.220446049250313e-16
      ],
      "type": "VEC2"
    },
    {
      "bufferView": 0,
      "byteOffset": 79872,
      "componentType": 5125,
      "count": 14568,
      "type": "SCALAR"
    },
    {
      "bufferView": 2,
      "byteOffset": 201048,
      "componentType": 5126,
      "count": 63,
      "max": [
        0.07563269138336182,
        0.3242717385292053,
        0.07952481508255005
      ],
      "min": [
        -0.07563269138336182,
        -0.06708922982215881,
        -0.07952481508255005
      ],
      "type": "VEC3"
    },
    {
      "bufferView": 2,
      "byteOffset": 201804,
      "componentType": 5126,
      "count": 63,
      "max": [
        0.9836101531982422,
        1.0,
        0.999564528465271
      ],
      "min": [
        -0.9860345125198364,
        -1.0,
        -0.999564528465271
      ],
      "type": "VEC3"
    },
    {
      "bufferView": 1,
      "byteOffset": 67016,
      "componentType": 5126,
      "count": 63,
      "max": [
        1.0,
        0.47238200902938843
      ],
      "min": [
        0.0,
        0.0
      ],
      "type": "VEC2"
    },
    {
      "bufferView": 0,
      "byteOffset": 138144,
      "componentType": 5125,
      "count": 240,
      "type": "SCALAR"
    },
    {
      "bufferView": 2,
      "byteOffset": 202560,
      "componentType": 5126,
      "count": 5704,
      "max": [
        1.7139569520950317,
        2.2941174507141113,
        1.7645487785339355
      ],
      "min": [
        -1.7079508304595947,
        -0.3054676651954651,
        -1.7089053392410278
      ],
      "type": "VEC3"
    },
    {
      "bufferView": 2,
      "byteOffset": 271008,
      "componentType": 5126,
      "count": 5704,
      "max": [
        0.9996734857559204,
        0.9999939203262329,
        0.9996678829193115
      ],
      "min": [
        -0.9990813732147217,
        -0.7393562197685242,
        -0.9991447925567627
      ],
      "type": "VEC3"
    },
    {
      "bufferView": 1,
      "byteOffset": 67520,
      "componentType": 5126,
      "count": 5704,
      "max": [
        0.9583334922790527,
        0.9583334922790527
      ],
      "min": [
        0.0416666641831398,
        0.0416666641831398
      ],
      "type": "VEC2"
    },
    {
      "bufferView": 0,
      "byteOffset": 139104,
      "componentType": 5125,
      "count": 19968,
      "type": "SCALAR"
    },
    {
      "bufferView": 2,
      "byteOffset": 339456,
      "componentType": 5126,
      "count": 2685,
      "max": [
        0.6668595671653748,
        0.05824974551796913,
        0.650387167930603
      ],
      "min": [
        -0.6668593883514404,
        -0.016620423644781113,
        -0.6448031663894653
      ],
      "type": "VEC3"
    },
    {
      "bufferView": 2,
      "byteOffset": 371676,
      "componentType": 5126,
      "count": 2685,
      "max": [
        1.0,
        1.0,
        1.0
      ],
      "min": [
        -1.0,
        -1.0,
        -1.0
      ],
      "type": "VEC3"
    },
    {
      "bufferView": 1,
      "byteOffset": 113152,
      "componentType": 5126,
      "count": 2685,
      "max": [
        1.0,
        1.0
      ],
      "min": [
        0.0,
        2.220446049250313e-16
      ],
      "type": "VEC2"
    },
    {
      "bufferView": 0,
      "byteOffset": 218976,
      "componentType": 5125,
      "count": 14568,
      "type": "SCALAR"
    },
    {
      "bufferView": 2,
      "byteOffset": 403896,
      "componentType": 5126,
      "count": 63,
      "max": [
        0.07563269138336182,
        0.3242717385292053,
        0.07952481508255005
      ],
      "min": [
        -0.07563269138336182,
        -0.06708922982215881,
        -0.07952481508255005
      ],
      "type": "VEC3"
    },
    {
      "bufferView": 2,
      "byteOffset": 404652,
      "componentType": 5126,
      "count": 63,
      "max": [
        0.9836101531982422,
        1.0,
        0.999564528465271
      ],
      "min": [
        -0.9860345125198364,
        -1.0,
        -0.999564528465271
      ],
      "type": "VEC3"
    },
    {
      "bufferView": 1,
      "byteOffset": 134632,
      "componentType": 5126,
      "count": 63,
      "max": [
        1.0,
        0.47238200902938843
      ],
      "min": [
        0.0,
        0.0
      ],
      "type": "VEC2"
    },
    {
      "bufferView": 0,
      "byteOffset": 277248,
      "componentType": 5125,
      "count": 240,
      "type": "SCALAR"
    },
    {
      "bufferView": 2,
      "byteOffset": 405408,
      "componentType": 5126,
      "count": 5660,
      "max": [
        1.4481964111328125,
        1.9062660932540894,
        1.4533406496047974
      ],
      "min": [
        -1.4500259160995483,
        -0.3362870216369629,
        -1.472883701324463
      ],
      "type": "VEC3"
    },
    {
      "bufferView": 2,
      "byteOffset": 473328,
      "componentType": 5126,
      "count": 5660,
      "max": [
        0.9999672174453735,
        0.9997526407241821,
        0.9999490976333618
      ],
      "min": [
        -0.9999926090240479,
        -0.6874722242355347,
        -0.9999470710754395
      ],
      "type": "VEC3"
    },
    {
      "bufferView": 1,
      "byteOffset": 135136,
      "componentType": 5126,
      "count": 5660,
      "max": [
        0.9583334922790527,
        0.9583334922790527
      ],
      "min": [
        0.0416666641831398,
        0.0416666641831398
      ],
      "type": "VEC2"
    },
    {
      "bufferView": 0,
      "byteOffset": 278208,
      "componentType": 5125,
      "count": 19968,
      "type": "SCALAR"
    },
    {
      "bufferView": 2,
      "byteOffset": 541248,
      "componentType": 5126,
      "count": 2685,
      "max": [
        1.3223259449005127,
        0.05824974551796913,
        1.3279848098754883
      ],
      "min": [
        -1.322325587272644,
        -0.016620423644781113,
        -1.3224045038223267
      ],
      "type": "VEC3"
    },
    {
      "bufferView": 2,
      "byteOffset": 573468,
      "componentType": 5126,
      "count": 2685,
      "max": [
        1.0,
        1.0,
        1.0
      ],
      "min": [
        -1.0,
        -1.0,
        -1.0
      ],
      "type": "VEC3"
    },
    {
      "bufferView": 1,
      "byteOffset": 180416,
      "componentType": 5126,
      "count": 2685,
      "max": [
        1.0,
        1.0
      ],
      "min": [
        0.0,
        2.220446049250313e-16
      ],
      "type": "VEC2"
    },
    {
      "bufferView": 0,
      "byteOffset": 358080,
      "componentType": 5125,
      "count": 14568,
      "type": "SCALAR"
    },
    {
      "bufferView": 2,
      "byteOffset": 605688,
      "componentType": 5126,
      "count": 63,
      "max": [
        0.07563269138336182,
        0.3242717385292053,
        0.07952481508255005
      ],
      "min": [
        -0.07563269138336182,
        -0.06708922982215881,
        -0.07952481508255005
      ],
      "type": "VEC3"
    },
    {
      "bufferView": 2,
      "byteOffset": 606444,
      "componentType": 5126,
      "count": 63,
      "max": [
        0.9836101531982422,
        1.0,
        0.999564528465271
      ],
      "min": [
        -0.9860345125198364,
        -1.0,
        -0.999564528465271
      ],
      "type": "VEC3"
    },
    {
      "bufferView": 1,
      "byteOffset": 201896,
      "componentType": 5126,
      "count": 63,
      "max": [
        1.0,
        0.47238200902938843
      ],
      "min": [
        0.0,
        0.0
      ],
      "type": "VEC2"
    },
    {
      "bufferView": 0,
      "byteOffset": 416352,
      "componentType": 5125,
      "count": 240,
      "type": "SCALAR"
    }
  ],
  "asset": {
    "extras": {
      "author": "Bayboose (https://sketchfab.com/Bayboose)",
      "license": "CC-BY-4.0 (http://creativecommons.org/licenses/by/4.0/)",
      "source": "https://sketchfab.com/3d-models/sky-lantern-pack-976380999ca54737ae812e503de3f90b",
      "title": "Sky Lantern Pack"
    },
    "generator": "Sketchfab-13.4.0",
    "version": "2.0"
  },
  "bufferViews": [
    {
      "buffer": 0,
      "byteLength": 417312,
      "name": "floatBufferViews",
      "target": 34963
    },
    {
      "buffer": 0,
      "byteLength": 202400,
      "byteOffset": 417312,
      "byteStride": 8,
      "name": "floatBufferViews",
      "target": 34962
    },
    {
      "buffer": 0,
      "byteLength": 607200,
      "byteOffset": 619712,
      "byteStride": 12,
      "name": "floatBufferViews",
      "target": 34962
    }
  ],
  "buffers": [
    {
      "byteLength": 1226912,
      "uri": "scene.bin"
    }
  ],
  "extensionsRequired": [
    "KHR_materials_pbrSpecularGlossiness"
  ],
  "extensionsUsed": [
    "KHR_materials_pbrSpecularGlossiness"
  ],
  "materials": [
    {
      "doubleSided": true,
      "extensions": {
        "KHR_materials_pbrSpecularGlossiness": {
          "diffuseFactor": [
            0.799103,
            0.672443,
            0.327778,
            1.0
          ],
          "glossinessFactor": 1.0,
          "specularFactor": [
            0.0,
            0.0,
            0.0
          ]
        }
      },
      "name": "CLOTH"
    },
    {
      "doubleSided": true,
      "extensions": {
        "KHR_materials_pbrSpecularGlossiness": {
          "diffuseFactor": [
            0.0,
            0.0,
            0.0,
            1.0
          ],
          "glossinessFactor": 1.0,
          "specularFactor": [
            1.0,
            1.0,
            1.0
          ]
        }
      },
      "name": "BARS"
    },
    {
      "doubleSided": true,
      "emissiveFactor": [
        1.0,
        1.0,
        1.0
      ],
      "extensions": {
        "KHR_materials_pbrSpecularGlossiness": {
          "diffuseFactor": [
            1.0,
            1.0,
            1.0,
            1.0
          ],
          "glossinessFactor": 0.0,
          "specularFactor": [
            1.0,
            1.0,
            1.0
          ]
        }
      },
      "name": "FLAME"
    }
  ],
  "meshes": [
    {
      "name": "Object_0",
      "primitives": [
        {
          "attributes": {
            "NORMAL": 1,
            "POSITION": 0,
            "TEXCOORD_0": 2
          },
          "indices": 3,
          "material": 0,
          "mode": 4
        }
      ]
    },
    {
      "name": "Object_1",
      "primitives": [
        {
          "attributes": {
            "NORMAL": 5,
            "POSITION": 4,
            "TEXCOORD_0": 6
          },
          "indices": 7,
          "material": 1,
          "mode": 4
        }
      ]
    },
    {
      "name": "Object_2",
      "primitives": [
        {
          "attributes": {
            "NORMAL": 9,
            "POSITION": 8,
            "TEXCOORD_0": 10
          },
          "indices": 11,
          "material": 2,
          "mode": 4
        }
      ]
    },
    {
      "name": "Object_3",
      "primitives": [
        {
          "attributes": {
            "NORMAL": 13,
            "POSITION": 12,
            "TEXCOORD_0": 14
          },
          "indices": 15,
          "material": 0,
          "mode": 4
        }
      ]
    },
    {
      "name": "Object_4",
      "primitives": [
        {
          "attributes": {
            "NORMAL": 17,
            "POSITION": 16,
            "TEXCOORD_0": 18
          },
          "indices": 19,
          "material": 1,
          "mode": 4
        }
      ]
    },
    {
      "name": "Object_5",
      "primitives": [
        {
          "attributes": {
            "NORMAL": 21,
            "POSITION": 20,
            "TEXCOORD_0": 22
          },
          "indices": 23,
          "material": 2,
          "mode": 4
        }
      ]
    },
    {
      "name": "Object_6",
      "primitives": [
        {
          "attributes": {
            "NORMAL": 25,
            "POSITION": 24,
            "TEXCOORD_0": 26
          },
          "indices": 27,
          "material": 0,
          "mode": 4
        }
      ]
    },
    {
      "name": "Object_7",
      "primitives": [
        {
          "attributes": {
            "NORMAL": 29,
            "POSITION": 28,
            "TEXCOORD_0": 30
          },
          "indices": 31,
          "material": 1,
          "mode": 4
        }
      ]
    },
    {
      "name": "Object_8",
      "primitives": [
        {
          "attributes": {
            "NORMAL": 33,
            "POSITION": 32,
            "TEXCOORD_0": 34
          },
          "indices": 35,
          "material": 2,
          "mode": 4
        }
      ]
    }
  ],
  "nodes": [
    {
      "children": [
        1
      ],
      "matrix": [
        1.0,
        0.0,
        0.0,
        0.0,
        0.0,
        2.220446049250313e-16,
        -1.0,
        0.0,
        0.0,
        1.0,
        2.220446049250313e-16,
        0.0,
        0.0,
        0.0,
        0.0,
        1.0
      ],
      "name": "Sketchfab_model"
    },
    {
      "children": [
        2
      ],
      "name": "root"
    },
    {
      "children": [
        3,
        7,
        11
      ],
      "matrix": [
        1.0,
        0.0,
        0.0,
        0.0,
        0.0,
        2.220446049250313e-16,
        1.0,
        0.0,
        0.0,
        -1.0,
        2.220446049250313e-16,
        0.0,
        0.0,
        0.0,
        0.0,
        1.0
      ],
      "name": "GLTF_SceneRootNode"
    },
    {
      "children": [
        4,
        5,
        6
      ],
      "matrix": [
        1.0,
        0.0,
        0.0,
        0.0,
        0.0,
        1.0,
        0.0,
        0.0,
        0.0,
        0.0,
        1.0,
        0.0,
        33.767234802246094,
        15.419756889343262,
        4.103821754455566,
        1.0
      ],
      "name": "TALL LANTERN_1"
    },
    {
      "mesh": 0,
      "name": "Object_4"
    },
    {
      "mesh": 1,
      "name": "Object_5"
    },
    {
      "mesh": 2,
      "name": "Object_6"
    },
    {
      "children": [
        8,
        9,
        10
      ],
      "matrix": [
        1.0,
        0.0,
        0.0,
        0.0,
        0.0,
        1.0,
        0.0,
        0.0,
        0.0,
        0.0,
        1.0,
        0.0,
        33.767234802246094,
        15.419756889343262,
        0.35924410820007324,
        1.0
      ],
      "name": "FAT LANTERN_2"
    },
    {
      "mesh": 3,
      "name": "Object_8"
    },
    {
      "mesh": 4,
      "name": "Object_9"
    },
    {
      "mesh": 5,
      "name": "Object_10"
    },
    {
      "children": [
        12,
        13,
        14
      ],
      "matrix": [
        1.0,
        0.0,
        0.0,
        0.0,
        0.0,
        1.0,
        0.0,
        0.0,
        0.0,
        0.0,
        1.0,
        0.0,
        33.767234802246094,
        15.419756889343262,
        -3.3113884925842285,
        1.0
      ],
      "name": "SHORT FAT LANTERN_3"
    },
    {
      "mesh": 6,
      "name": "Object_12"
    },
    {
      "mesh": 7,
      "name": "Object_13"
    },
    {
      "mesh": 8,
      "name": "Object_14"
    }
  ],
  "scene": 0,
  "scenes": [
    {
      "name": "Sketchfab_Scene",
      "nodes": [
        0
      ]
    }
  ]
}
